<svg id="Layer_1" data-name="Layer 1" xmlns="http://www.w3.org/2000/svg" viewBox="0 0 2500 2500">
  <defs>
    <style>
      .cls-1 {
        fill: #6a9e6a;
      }

      .cls-2 {
        fill: #93ce93;
      }

      .cls-3 {
        fill: #a1e5a1;
      }

      .cls-23, .cls-4 {
        fill: #b7a895;
      }

      .cls-4 {
        stroke: #a1e5a1;
        stroke-width: 82px;
      }

      .cls-4, .cls-5, .cls-6 {
        stroke-miterlimit: 10;
      }

      .cls-5, .cls-6 {
        fill: none;
      }

      .cls-5 {
        stroke: #998b7c;
        stroke-linecap: round;
        stroke-width: 20px;
      }

      .cls-6 {
        stroke: #8e8070;
        stroke-width: 13px;
      }

      .cls-7 {
        fill: #d18de2;
      }

      .cls-8 {
        fill: #b29b90;
      }

      .cls-9 {
        fill: #af58c4;
      }

      .cls-10 {
        fill: #c575d8;
      }

      .cls-11 {
        fill: #7db57d;
      }

      .cls-12 {
        fill: #dba0ea;
      }

      .cls-13 {
        fill: #a1e5a0;
      }

      .cls-14 {
        fill: #f2f2f2;
      }

      .cls-15 {
        fill: #ccc;
      }

      .cls-16 {
        fill: #fff;
      }

      .cls-17 {
        fill: #7b7c7b;
      }

      .cls-18 {
        fill: #b7ab9a;
      }

      .cls-19 {
        fill: #ccc1b0;
      }

      .cls-20 {
        fill: #dbd1c1;
      }

      .cls-21 {
        fill: #fee9ff;
      }

      .cls-22 {
        fill: #c6c1bd;
      }

      .cls-24 {
        fill: #998a79;
      }

      .cls-25 {
        fill: #7f6247;
      }
    </style>
  </defs>
  <title>assets</title>
  <g>
    <path class="cls-1" d="M2156.94,1199.35s116.84,48.63,75,133.19-156.09,93.74-156.09,93.74l-11-151.19Z"/>
    <path class="cls-2" d="M457.74,934s-271.3,32.3-293.92,202.62,244.05,283.57,244.05,283.57Z"/>
    <line class="cls-2" x1="237.66" y1="961.28" x2="-3.17" y2="1348.07"/>
    <path class="cls-3" d="M203.87,1120.1c-15.53-10.24-27.39-10.24-36.41-3.36a163.19,163.19,0,0,0-3.47,18.16C141.37,1305.23,408,1418.47,408,1418.47l29.27-285.34c-21.15,18.92-49.32,48.31-84,93.62C268.65,1337.18,289.69,1176.71,203.87,1120.1Z"/>
    <path class="cls-2" d="M2064.82,1275.09s240.45-129.73,198.9-296.45-331.18-174-331.18-174Z"/>
    <line class="cls-2" x1="2259.47" y1="1168.83" x2="2341.31" y2="720.6"/>
    <path class="cls-3" d="M2232.53,1008.7c18.21,3.82,29.24-.55,35.1-10.26a163.19,163.19,0,0,0-3.45-18.17c-41.55-166.72-331.18-174-331.18-174l77.63,276.13c12.72-25.37,28.12-63.05,43.76-118C2092.52,830.61,2131.92,987.59,2232.53,1008.7Z"/>
    <circle class="cls-4" cx="1240.64" cy="1253.74" r="814.63" transform="translate(-326.25 2063.61) rotate(-72.63)"/>
    <path class="cls-5" d="M1894.48,1178a676.71,676.71,0,0,0-41.09-126.91"/>
    <path class="cls-6" d="M2156.15,1765.9s-48.59,3.85-82.9,67.65-40.1,127.23-40.1,127.23-63.82-13.27-121.06,35.54-58.29,118.8-58.29,118.8"/>
    <path class="cls-6" d="M547.59,2072s-4.85-75.2-53.89-133.83S375.59,1885,375.59,1885s23.08-100.55-2.93-157.69-107.42-57.18-107.42-57.18"/>
    <g>
      <circle class="cls-7" cx="342.13" cy="1685.25" r="15.77" transform="translate(-1370.55 1530.89) rotate(-73.37)"/>
      <rect class="cls-8" x="354.47" y="1502.76" width="22.92" height="253.13" transform="translate(-988.71 2605.83) rotate(-113.13)"/>
      <circle class="cls-9" cx="307.83" cy="1698.69" r="15.77" transform="translate(-1407.92 1507.61) rotate(-73.37)"/>
      <circle class="cls-10" cx="340.16" cy="1725.89" r="15.77" transform="translate(-1410.9 1558.01) rotate(-73.37)"/>
      <path class="cls-2" d="M292.4,1695.25l-4.26,69.39S349.89,1710.25,292.4,1695.25Z"/>
      <path class="cls-11" d="M291.88,1696.61l-44.15,53.71S329.65,1742.47,291.88,1696.61Z"/>
      <circle class="cls-12" cx="377.17" cy="1712.17" r="15.77" transform="translate(-1371.34 1583.68) rotate(-73.37)"/>
      <circle class="cls-7" cx="382.5" cy="1570.84" r="15.77" transform="translate(-1145.67 1043.07) rotate(-57.26)"/>
      <circle class="cls-9" cx="347.71" cy="1582.98" r="15.77" transform="translate(-1171.86 1019.39) rotate(-57.26)"/>
      <circle class="cls-10" cx="354.53" cy="1541.29" r="15.77" transform="translate(-1133.65 1005.98) rotate(-57.26)"/>
      <path class="cls-2" d="M338.24,1595.64l-48.43-49.88S372.1,1546.82,338.24,1595.64Z"/>
      <path class="cls-11" d="M337,1594.95l-68.48-12S335.76,1535.55,337,1594.95Z"/>
      <circle class="cls-12" cx="391.55" cy="1527.59" r="15.77" transform="translate(-1105.14 1030.83) rotate(-57.26)"/>
    </g>
    <g>
      <circle class="cls-7" cx="460.39" cy="1880.58" r="15.77" transform="translate(-1446.54 2215.47) rotate(-86.2)"/>
      <rect class="cls-8" x="459.71" y="1694.2" width="22.92" height="253.13" transform="translate(-725.95 3271.32) rotate(-125.96)"/>
      <circle class="cls-9" cx="429.93" cy="1901.3" r="15.77" transform="translate(-1495.66 2204.43) rotate(-86.2)"/>
      <circle class="cls-10" cx="467.49" cy="1920.64" r="15.77" transform="translate(-1479.88 2259.97) rotate(-86.2)"/>
      <path class="cls-2" d="M414.12,1901.38,425.37,1970S473.5,1903.23,414.12,1901.38Z"/>
      <path class="cls-11" d="M413.91,1902.81,382.79,1965S460.93,1939.14,413.91,1902.81Z"/>
      <circle class="cls-12" cx="500.53" cy="1899.04" r="15.77" transform="translate(-1427.48 2272.77) rotate(-86.2)"/>
      <circle class="cls-7" cx="474.34" cy="1760.06" r="15.77" transform="translate(-1342.06 1606.75) rotate(-70.09)"/>
      <circle class="cls-9" cx="443.12" cy="1779.62" r="15.77" transform="translate(-1381.04 1590.3) rotate(-70.09)"/>
      <circle class="cls-10" cx="440.51" cy="1737.45" r="15.77" transform="translate(-1343.11 1560.04) rotate(-70.09)"/>
      <path class="cls-2" d="M436.69,1794.07l-58.3-37.88S458.87,1738.95,436.69,1794.07Z"/>
      <path class="cls-11" d="M435.3,1793.68l-69.43,3.5S420.93,1736,435.3,1793.68Z"/>
      <circle class="cls-12" cx="473.57" cy="1715.88" r="15.77" transform="translate(-1301.03 1576.89) rotate(-70.09)"/>
    </g>
    <g>
      <circle class="cls-7" cx="625.32" cy="2043.72" r="15.77" transform="translate(-411.28 174.69) rotate(-12)"/>
      <rect class="cls-8" x="607.96" y="1856.67" width="22.92" height="253.13" transform="translate(-121.77 3924.25) rotate(-141.76)"/>
      <circle class="cls-9" cx="601.65" cy="2071.95" r="15.77" transform="matrix(0.98, -0.21, 0.21, 0.98, -417.66, 170.38)"/>
      <circle class="cls-10" cx="643.06" cy="2080.34" r="15.77" transform="translate(-418.5 179.18) rotate(-12)"/>
      <path class="cls-2" d="M586.46,2076.33l29.5,63S644.11,2061.95,586.46,2076.33Z"/>
      <path class="cls-11" d="M586.65,2077.77l-13,68.29S641.78,2099.92,586.65,2077.77Z"/>
      <circle class="cls-12" cx="668.97" cy="2050.56" r="15.77" transform="translate(-411.74 183.91) rotate(-12)"/>
      <circle class="cls-7" cx="605.94" cy="1923.96" r="15.77" transform="translate(-1356.51 2390.41) rotate(-85.89)"/>
      <circle class="cls-9" cx="581.22" cy="1951.28" r="15.77" transform="translate(-1406.71 2391.12) rotate(-85.89)"/>
      <circle class="cls-10" cx="567.24" cy="1911.41" r="15.77" transform="translate(-1379.93 2340.16) rotate(-85.89)"/>
      <path class="cls-2" d="M579,1966.93l-66.41-20.58S585.31,1907.85,579,1966.93Z"/>
      <path class="cls-11" d="M577.52,1966.94l-65.86,22.27S548,1915.37,577.52,1966.94Z"/>
      <circle class="cls-12" cx="593.17" cy="1881.66" r="15.77" transform="translate(-1326.17 2338.41) rotate(-85.89)"/>
    </g>
    <line class="cls-2" x1="1203.12" y1="82.76" x2="1429.66" y2="-312.56"/>
    <line class="cls-2" x1="361.34" y1="2176.96" x2="811.05" y2="2103.73"/>
    <g>
      <rect class="cls-8" x="1451.63" y="363.44" width="38.7" height="106.25" transform="translate(191.39 -420.07) rotate(17.37)"/>
      <path class="cls-11" d="M1386.67,363l122.67-66.24,61.48,123.89c3.83,7.71-3.15,18.18-10.57,15.86l-174-54.42C1378.8,379.8,1379.08,367.14,1386.67,363Z"/>
      <path class="cls-2" d="M1421.32,307.62,1523,252.74l50.94,102.65c3.17,6.39-2.61,15.06-8.75,13.14L1421,323.44C1414.8,321.51,1415,311,1421.32,307.62Z"/>
    </g>
    <g>
      <rect class="cls-8" x="1028.13" y="359.49" width="38.7" height="106.25" transform="translate(-71.02 284.5) rotate(-14.97)"/>
      <path class="cls-11" d="M947.61,412.48l68.22-121.58L1134,362.71c7.35,4.47,7.06,17-.45,19L957.46,428.84C949.92,430.85,943.38,420,947.61,412.48Z"/>
      <path class="cls-2" d="M947.25,347.12l56.53-100.73,97.94,59.49c6.09,3.7,5.85,14.12-.37,15.78l-145.94,39C949.16,362.34,943.75,353.35,947.25,347.12Z"/>
    </g>
    <g>
      <rect class="cls-8" x="832.57" y="1990.92" width="38.7" height="106.25" transform="translate(793.74 4257.76) rotate(-155.87)"/>
      <path class="cls-11" d="M929.34,2107.14l-129.62,51.33L753.27,2028.2c-2.89-8.11,5.27-17.68,12.36-14.5L932,2088.23C939.13,2091.43,937.36,2104,929.34,2107.14Z"/>
      <path class="cls-2" d="M888.4,2158.09,781,2200.62l-38.49-107.94c-2.39-6.72,4.37-14.65,10.24-12l137.86,61.76C896.51,2145.07,895,2155.46,888.4,2158.09Z"/>
    </g>
    <rect class="cls-8" x="1782.56" y="530.93" width="38.7" height="106.25" transform="translate(743.73 -987.01) rotate(38.08)"/>
    <path class="cls-1" d="M1711.57,468.75l185.92-4.64,38,180.18a12.27,12.27,0,0,1-19.58,12.19L1704.3,490.68A12.27,12.27,0,0,1,1711.57,468.75Z"/>
    <path class="cls-11" d="M1776.11,422.4,1933,418.48l32.08,152a10.36,10.36,0,0,1-16.52,10.29L1770,440.9A10.36,10.36,0,0,1,1776.11,422.4Z"/>
    <path class="cls-2" d="M1837.73,377.11l130-3.24,26.58,126a8.58,8.58,0,0,1-13.69,8.53l-148-115.92A8.58,8.58,0,0,1,1837.73,377.11Z"/>
    <g>
      <rect class="cls-8" x="1643.28" y="484.81" width="26.28" height="72.15" transform="translate(486.04 -761.79) rotate(30.16)"/>
      <path class="cls-11" d="M1608.64,472.76l91.19-25.41,22.07,91.28c1.37,5.68-4.82,11.56-9.38,8.91l-107-62.2C1600.91,482.67,1603,474.33,1608.64,472.76Z"/>
      <path class="cls-2" d="M1639.93,441.28l75.55-21.05,18.29,75.63c1.14,4.71-4,9.58-7.77,7.38l-88.68-51.54C1633.52,449.49,1635.25,442.58,1639.93,441.28Z"/>
    </g>
    <g>
      <rect class="cls-8" x="614.99" y="592.54" width="26.28" height="72.15" transform="translate(-260.29 608.31) rotate(-43.71)"/>
      <path class="cls-11" d="M568.63,661.15l.91-94.66,93.82,4.14c5.84.26,9.77,7.84,6,11.49l-89.48,85.55C576,671.33,568.57,667,568.63,661.15Z"/>
      <path class="cls-2" d="M547.07,622.35l.76-78.43,77.74,3.43c4.84.21,8.09,6.5,4.93,9.52l-74.14,70.88C553.18,630.79,547,627.21,547.07,622.35Z"/>
    </g>
    <rect class="cls-8" x="1208.3" y="324.49" width="38.7" height="106.25" transform="translate(-25.61 96.46) rotate(-4.45)"/>
    <path class="cls-1" d="M1083.13,353.72,1217,224.62l149.82,107.07a12.27,12.27,0,0,1-6.18,22.22l-268,20.87A12.27,12.27,0,0,1,1083.13,353.72Z"/>
    <path class="cls-11" d="M1099.36,275.93l113-108.93,126.42,90.35a10.36,10.36,0,0,1-5.22,18.75l-226.16,17.61A10.36,10.36,0,0,1,1099.36,275.93Z"/>
    <path class="cls-2" d="M1114.15,200.9l93.59-90.26,104.74,74.86a8.58,8.58,0,0,1-4.32,15.54l-187.39,14.59A8.58,8.58,0,0,1,1114.15,200.9Z"/>
    <rect class="cls-8" x="1329.44" y="2087.11" width="38.7" height="106.25" transform="translate(2923.93 4119.83) rotate(173.71)"/>
    <path class="cls-1" d="M1494,2159.49l-129.66,133.32-153.17-102.22a12.27,12.27,0,0,1,5.47-22.41l267.22-29.45A12.27,12.27,0,0,1,1494,2159.49Z"/>
    <path class="cls-11" d="M1480.28,2237.76l-109.41,112.5L1241.63,2264a10.36,10.36,0,0,1,4.61-18.91l225.48-24.85A10.36,10.36,0,0,1,1480.28,2237.76Z"/>
    <path class="cls-2" d="M1467.9,2313.22l-90.65,93.21L1270.16,2335a8.58,8.58,0,0,1,3.82-15.67l186.83-20.59A8.58,8.58,0,0,1,1467.9,2313.22Z"/>
    <ellipse class="cls-2" cx="1101.92" cy="2067.41" rx="22.09" ry="114.11" transform="translate(-1150.85 2710.41) rotate(-77.87)"/>
    <path class="cls-13" d="M404.54,992.41s-56.87-62.48-8.09-175.09S604.11,736.5,604.11,736.5L454.23,1037.57Z"/>
    <rect class="cls-14" x="366.74" y="790.13" width="75.38" height="45.77" transform="translate(-503.55 824.08) rotate(-64.25)"/>
    <polygon class="cls-8" points="369.64 849.22 409.91 765.73 382.72 769.35 354.89 827.04 369.64 849.22"/>
    <rect class="cls-15" x="407.69" y="808.97" width="11.75" height="22.88" transform="translate(-505.05 836.49) rotate(-64.25)"/>
    <path class="cls-2" d="M421.1,830.56s13,26.4,35.21,7.47,58.81-69.73,42.34,3.85S513.78,910,513.78,910l14.46-30s-25.07,26.73-13.5-81c0,0,2.12-40.28-59.22,28.31,0,0-18.53,20.06-29.13-7.34"/>
    <rect class="cls-16" x="404.68" y="788.29" width="18.83" height="12.01" transform="translate(-481.23 822.19) rotate(-64.25)"/>
    <polygon class="cls-17" points="356.5 818.9 369.01 836.14 398.46 775.08 378.38 773.55 356.5 818.9"/>
    <g>
      <ellipse class="cls-18" cx="1087.77" cy="2121.82" rx="56.88" ry="87.08" transform="translate(-1215.22 2739.55) rotate(-77.87)"/>
      <rect class="cls-18" x="1109.34" y="2074.49" width="55.71" height="19.94" rx="2.69" ry="2.69" transform="translate(1811.09 4361.3) rotate(-167.87)"/>
      <rect class="cls-18" x="1029.35" y="2057.3" width="55.71" height="19.94" rx="2.69" ry="2.69" transform="translate(1656.52 4310.51) rotate(-167.87)"/>
      <path class="cls-19" d="M1033.64,2186.92c1.66,18.85,14.57,35.79,33.1,39.77l5.52,1.19c23,4.95,49.13-11.62,54.35-35.88l5.06-23.55c.13-.62-1.12-1.53-1-2.15l-.64-.1s-.33-.2-.32-.41a47,47,0,0,0,.34-11.42c.81-21.92,1.57-68.39-4.89-84.61-8.57-21.52-27.38-11.65-27.37,25.66,0,0,2.91,7.56,1.75,20.69-1-.3-2.15,0-3.19-.25l-5.52-1.19c-7.37-1.58-14.63-1.58-21.43.69a161.77,161.77,0,0,1,10-23c10-18.71,19.11-63.81-16.67-28.51S1033.64,2186.92,1033.64,2186.92Z"/>
      <path class="cls-20" d="M1024.28,2232.34l-.48.8s-13.36,45.41-9.87,98.95,25.11,61.78,30.39,6.53c3.86-40.4-6.05-55.54-7.53-77.81a46.14,46.14,0,0,0,48.42,13.11c-10.31,16.9-24.19,28-36.23,63.31-17.89,52.54,5.21,53.9,30.39,6.53,19.58-36.85,27.85-73.41,30.56-87.83a51.41,51.41,0,0,0,8.7-19.51c5.78-26.91-10.45-53.22-36.26-58.76s-51.41,11.77-57.2,38.68A51.67,51.67,0,0,0,1024.28,2232.34Z"/>
      <polygon class="cls-21" points="1084.47 2202.8 1068.42 2199.35 1078.66 2190.75 1084.47 2202.8"/>
      <circle class="cls-16" cx="1098.38" cy="2224.58" r="16.57" transform="translate(-1307.31 2831.1) rotate(-77.87)"/>
      <circle class="cls-16" cx="1047.07" cy="2213.56" r="16.57" transform="translate(-1337.06 2772.22) rotate(-77.87)"/>
      <circle class="cls-19" cx="1097.95" cy="2233.57" r="5.91" transform="translate(-1316.44 2837.78) rotate(-77.87)"/>
      <circle class="cls-19" cx="1046.64" cy="2222.54" r="5.91" transform="translate(-1346.19 2778.9) rotate(-77.87)"/>
      <path class="cls-21" d="M1095.49,2273.14s-8.16,64-38.84,82.83S1095.49,2273.14,1095.49,2273.14Z"/>
      <path class="cls-21" d="M1029.13,2258.88s-18.86,61.72,1.39,91.47S1029.13,2258.88,1029.13,2258.88Z"/>
    </g>
    <circle class="cls-7" cx="2125.88" cy="1701.18" r="15.77" transform="translate(-474.04 892.61) rotate(-21.39)"/>
    <rect class="cls-8" x="2055.71" y="1590.31" width="22.92" height="253.13" transform="translate(4568.47 734.85) rotate(118.85)"/>
    <circle class="cls-9" cx="2157.6" cy="1719.93" r="15.77" transform="translate(-478.69 905.47) rotate(-21.39)"/>
    <circle class="cls-10" cx="2159.11" cy="1677.7" r="15.77" transform="translate(-463.19 903.11) rotate(-21.39)"/>
    <path class="cls-2" d="M2164.4,1734.2l57.29-39.38S2140.8,1679.67,2164.4,1734.2Z"/>
    <path class="cls-11" d="M2165.78,1733.77l69.5,1.7S2178.65,1675.77,2165.78,1733.77Z"/>
    <circle class="cls-12" cx="2125.51" cy="1657" r="15.77" transform="translate(-457.95 889.43) rotate(-21.39)"/>
    <circle class="cls-7" cx="2010.89" cy="1739.84" r="15.77" transform="translate(-151.57 192.43) rotate(-5.28)"/>
    <circle class="cls-9" cx="2041.88" cy="1759.77" r="15.77" transform="translate(-153.28 195.37) rotate(-5.28)"/>
    <circle class="cls-10" cx="2004.83" cy="1780.07" r="15.77" transform="translate(-155.3 192.04) rotate(-5.28)"/>
    <path class="cls-2" d="M2057.68,1759.44l-9.47,68.87S1998.37,1762.83,2057.68,1759.44Z"/>
    <path class="cls-11" d="M2057.93,1760.87l32.72,61.34S2011.87,1798.4,2057.93,1760.87Z"/>
    <circle class="cls-12" cx="1971.24" cy="1759.34" r="15.77" transform="translate(-153.54 188.87) rotate(-5.28)"/>
    <circle class="cls-7" cx="2014.36" cy="1888" r="15.77" transform="translate(-282.8 356.58) rotate(-9.46)"/>
    <rect class="cls-8" x="1942.22" y="1764.65" width="22.92" height="253.13" transform="translate(4661.85 1647.58) rotate(130.79)"/>
    <circle class="cls-9" cx="2041.52" cy="1912.91" r="15.77" transform="translate(-286.52 361.38) rotate(-9.46)"/>
    <circle class="cls-10" cx="2051.73" cy="1871.91" r="15.77" transform="translate(-279.65 362.5) rotate(-9.46)"/>
    <path class="cls-2" d="M2045.22,1928.27l64.2-26.68S2033.41,1870,2045.22,1928.27Z"/>
    <path class="cls-11" d="M2046.66,1928.15l67.65,16S2071.24,1874.06,2046.66,1928.15Z"/>
    <circle class="cls-12" cx="2023.14" cy="1844.7" r="15.77" transform="translate(-275.57 357.43) rotate(-9.46)"/>
    <circle class="cls-7" cx="1893.86" cy="1902.05" r="15.77" transform="translate(-214.89 3562.67) rotate(-83.34)"/>
    <circle class="cls-9" cx="1920.06" cy="1927.95" r="15.77" transform="translate(-217.46 3611.59) rotate(-83.34)"/>
    <circle class="cls-10" cx="1879.61" cy="1940.16" r="15.77" transform="translate(-265.34 3582.21) rotate(-83.34)"/>
    <path class="cls-2" d="M1935.59,1930.9l-23.51,65.43S1876.85,1921.95,1935.59,1930.9Z"/>
    <path class="cls-11" d="M1935.53,1932.35l19.33,66.78S1882.71,1959.54,1935.53,1932.35Z"/>
    <circle class="cls-12" cx="1851.04" cy="1912.93" r="15.77" transform="translate(-263.56 3529.75) rotate(-83.34)"/>
    <circle class="cls-7" cx="1854.83" cy="2045.13" r="15.77" transform="translate(-307.17 3762.32) rotate(-86.25)"/>
    <rect class="cls-8" x="1783.56" y="1907.83" width="22.92" height="253.13" transform="translate(4443.07 2624.88) rotate(143.99)"/>
    <circle class="cls-9" cx="1875.58" cy="2075.58" r="15.77" transform="translate(-318.16 3811.48) rotate(-86.25)"/>
    <circle class="cls-10" cx="1894.89" cy="2038" r="15.77" transform="matrix(0.07, -1, 1, 0.07, -262.61, 3795.62)"/>
    <path class="cls-2" d="M1875.67,2091.39l68.6-11.31S1877.47,2032,1875.67,2091.39Z"/>
    <path class="cls-11" d="M1877.11,2091.6l62.19,31.07S1913.39,2044.55,1877.11,2091.6Z"/>
    <circle class="cls-12" cx="1873.27" cy="2004.98" r="15.77" transform="translate(-249.87 3743.19) rotate(-86.25)"/>
    <circle class="cls-7" cx="1734.31" cy="2031.29" r="15.77" transform="translate(-765.35 2972.38) rotate(-70.14)"/>
    <circle class="cls-9" cx="1753.9" cy="2062.49" r="15.77" transform="translate(-781.76 3011.41) rotate(-70.14)"/>
    <circle class="cls-10" cx="1711.73" cy="2065.13" r="15.77" transform="translate(-812.09 2973.5) rotate(-70.14)"/>
    <path class="cls-2" d="M1768.34,2068.9l-37.83,58.33S1713.21,2046.77,1768.34,2068.9Z"/>
    <path class="cls-11" d="M1768,2070.3l3.56,69.43S1710.32,2084.71,1768,2070.3Z"/>
    <circle class="cls-12" cx="1690.13" cy="2032.09" r="15.77" transform="translate(-795.28 2931.37) rotate(-70.14)"/>
    <g>
      <rect class="cls-8" x="2052.65" y="1445.42" width="34.85" height="95.68" transform="translate(4056.56 -109.53) rotate(105.3)"/>
      <path class="cls-11" d="M2115.51,1415.64l63.6,108.24-109.49,59.35c-6.81,3.69-16.46-2.24-14.61-9l43.31-158.36C2100.17,1409.11,2111.57,1408.95,2115.51,1415.64Z"/>
      <path class="cls-2" d="M2166.51,1445l52.7,89.68-90.72,49.18c-5.64,3.06-13.64-1.86-12.11-7.45l35.89-131.21C2153.8,1439.61,2163.25,1439.48,2166.51,1445Z"/>
    </g>
    <ellipse class="cls-22" cx="1905.11" cy="1520.39" rx="33.79" ry="22.78" transform="translate(-345.89 2455.28) rotate(-61.15)"/>
    <ellipse class="cls-22" cx="549.26" cy="1296.59" rx="22.78" ry="33.79" transform="translate(-25.83 11.25) rotate(-1.15)"/>
    <ellipse class="cls-22" cx="1435.71" cy="1909.92" rx="33.79" ry="22.78" transform="translate(-474.5 474.59) rotate(-16.15)"/>
    <ellipse class="cls-22" cx="979.22" cy="1858.08" rx="22.78" ry="33.79" transform="translate(-1116.82 1992.1) rotate(-65.87)"/>
    <ellipse class="cls-22" cx="1066.86" cy="1862.78" rx="14.34" ry="21.27" transform="translate(-1069.29 2074.87) rotate(-65.87)"/>
    <ellipse class="cls-22" cx="1792.37" cy="787.06" rx="22.78" ry="33.79" transform="translate(-47.4 1455.86) rotate(-43.68)"/>
    <ellipse class="cls-22" cx="960.78" cy="632.16" rx="33.79" ry="22.78" transform="matrix(0.94, -0.35, 0.35, 0.94, -159.34, 371.29)"/>
    <ellipse class="cls-22" cx="871.12" cy="743.31" rx="33.79" ry="22.78" transform="translate(-258.89 557.71) rotate(-31.15)"/>
    <ellipse class="cls-22" cx="1926.33" cy="1429.01" rx="16.89" ry="11.39" transform="translate(-254.88 2426.6) rotate(-61.15)"/>
    <ellipse class="cls-22" cx="1802.83" cy="1512.39" rx="16.89" ry="11.39" transform="translate(-391.81 2361.57) rotate(-61.15)"/>
    <ellipse class="cls-22" cx="1787.01" cy="970.7" rx="11.39" ry="16.89" transform="translate(-244.47 1064.21) rotate(-31.15)"/>
    <ellipse class="cls-22" cx="932.78" cy="1788.9" rx="11.39" ry="16.89" transform="translate(-1075.34 1594.75) rotate(-56.94)"/>
    <ellipse class="cls-22" cx="1063.73" cy="678.04" rx="16.89" ry="11.39" transform="translate(-193.03 569.38) rotate(-27.57)"/>
    <ellipse class="cls-22" cx="610.33" cy="1380.42" rx="11.39" ry="16.89" transform="translate(-105.34 51.56) rotate(-4.45)"/>
    <ellipse class="cls-22" cx="725.65" cy="815.31" rx="16.89" ry="11.39" transform="translate(-338.63 1057.43) rotate(-61.15)"/>
    <path class="cls-5" d="M1557.58,1810.87a676.55,676.55,0,0,0,99.94-68.87"/>
    <path class="cls-5" d="M642.76,944.08a676.55,676.55,0,0,0-33.25,116.72"/>
    <path class="cls-5" d="M1109.84,1942.07a679,679,0,0,0,242.81-11.31"/>
    <path class="cls-5" d="M682.21,1629.85a675.26,675.26,0,0,0,63.33,82.88"/>
    <path class="cls-5" d="M1468,621.09q-18.91-6.93-38-12.68a673.9,673.9,0,0,0-76.62-18.24q-17.59-3.11-35.24-5.28"/>
    <path class="cls-5" d="M1579.46,665.13q-20.91-11.52-42.26-21.43"/>
    <ellipse class="cls-2" cx="819.3" cy="557.44" rx="114.11" ry="22.09" transform="translate(-168.95 484.33) rotate(-30)"/>
    <g>
      <path class="cls-23" d="M817.09,369.35s105,161.31,4,149.5c-93.1-10.89-75-106.07-75-106.07S708.3,366.39,776,346.37s84,60.15,84,60.15-25.19,10.25-37-13.09Z"/>
      <rect class="cls-19" x="737.03" y="447.22" width="99.08" height="113.22" rx="15.78" ry="15.78" transform="translate(-147.33 484.73) rotate(-31.47)"/>
      <rect class="cls-20" x="777.34" y="549.03" width="32.66" height="19.82" rx="3.16" ry="3.16" transform="translate(-175.06 496.55) rotate(-31.47)"/>
      <rect class="cls-20" x="815.16" y="525.88" width="32.66" height="19.82" rx="3.16" ry="3.16" transform="translate(-157.41 512.88) rotate(-31.47)"/>
      <path class="cls-24" d="M821.92,369.53s32.61,14.72,38.06,37c0,0-14.1,8.13-21,1S821.92,369.53,821.92,369.53Z"/>
      <g>
        <path class="cls-25" d="M764.94,498s.79,19.8,14.38,22.56a15.27,15.27,0,0,1,7.89,4.24l.27.28.15-.35a14.86,14.86,0,0,1,5.5-6.56c4.14-2.77,10-9.95,4.94-27.57Z"/>
        <path class="cls-24" d="M766.9,483.17H797a3,3,0,0,1,3,3v12.68a3,3,0,0,1-3,3H762.9a1,1,0,0,1-1-1V488.14A5,5,0,0,1,766.9,483.17Z" transform="translate(-81.53 163.03) rotate(-11.33)"/>
        <rect class="cls-24" x="775.51" y="469.22" width="5.65" height="20.28" rx="0.9" ry="0.9" transform="translate(-79.01 162.26) rotate(-11.33)"/>
      </g>
      <path class="cls-20" d="M731.64,487s-28,69.12,37.87,45.16c0,0,10.35-5.71,5.59-13.49s4.65-4.74,4.65-4.74-2.93-8.9-8-5.82-3.58-10.39.73-6.74c0,0-9.65-5.78-11.34,1.73s.82,15.74.82,15.74-12.52,3.19-10.44-9.86S735.58,474.21,731.64,487Z"/>
      <path class="cls-20" d="M791.13,448.74s74.3,6.49,23,54.26c0,0-9.79,6.62-14.55-1.16s-6.33,2-6.33,2-6.59-6.66-1.56-9.74-7.63-7.92-6.33-2.42c0,0-.76-11.22,6.7-9.32s13.64,7.89,13.64,7.89,8.54-9.7-4-13.78S777.91,446.41,791.13,448.74Z"/>
      <path class="cls-20" d="M754.42,389.15c-12.51-3.87-16.55-15.37-19.84-5.86-1.7,4.91-3.48,12.26-2.61,18.73a44,44,0,0,0-21.77,13.16c-5.36-3.65-12.64-5.4-17.74-6.11-10-1.39-1.57,7.44-3.81,20.34-1.86,10.73,8.44,23.37,12,27.34a43.91,43.91,0,1,0,73.13-43.33C772.67,410.42,765.86,392.7,754.42,389.15Z"/>
      <path class="cls-19" d="M700.49,445.66s1.3-19-2.48-25.14S693.27,434.88,700.49,445.66Z"/>
      <path class="cls-19" d="M763.42,407.14s-17.47-7.47-21.25-13.65S757.11,395.8,763.42,407.14Z"/>
      <circle class="cls-16" cx="723.24" cy="460.08" r="16.13" transform="translate(-133.81 445.24) rotate(-31.47)"/>
      <circle class="cls-16" cx="766.8" cy="433.41" r="16.13" transform="translate(-113.48 464.06) rotate(-31.47)"/>
      <circle class="cls-19" cx="717.51" cy="453.45" r="5.75" transform="translate(-131.19 441.27) rotate(-31.47)"/>
      <circle class="cls-19" cx="761.07" cy="426.79" r="5.75" transform="matrix(0.85, -0.52, 0.52, 0.85, -110.86, 460.09)"/>
      <path class="cls-23" d="M749.55,472.17s5.36,3.59,10.15-.05,3.66-8.4,3.66-8.4"/>
    </g>
  </g>
</svg>
