<svg id="Layer_1" data-name="Layer 1" xmlns="http://www.w3.org/2000/svg" viewBox="0 0 900 300">
  <defs>
    <style>
      .cls-1 {
        fill: #c63849;
      }

      .cls-2 {
        fill: #fff;
      }

      .cls-3 {
        fill: #edb740;
      }

      .cls-4 {
        fill: #fc6;
      }

      .cls-5 {
        fill: #4c4c4c;
      }

      .cls-6 {
        fill: #992c3f;
      }
    </style>
  </defs>
  <title>Untitled-2</title>
  <path class="cls-1" d="M162.9,59.54c-35.45,0-66.41,18.62-83,46.3h0s-25.63,42.35-36-3.61c0,0-19,148,119,143.18,53,0,96-41.61,96-92.94S215.9,59.54,162.9,59.54Z"/>
  <circle class="cls-2" cx="170.89" cy="130.4" r="42.51"/>
  <circle class="cls-2" cx="253.31" cy="126.08" r="35.46"/>
  <path class="cls-3" d="M272.7,181.15S257.87,196,244,191s-14.83-15.82-14.83-15.82Z"/>
  <path class="cls-4" d="M228.21,172.52s-8.9-20.76,17.8-22.74,39.55,32.63,39.55,32.63S228.21,186.4,228.21,172.52Z"/>
  <circle class="cls-5" cx="193.63" cy="130.4" r="11.37"/>
  <circle class="cls-5" cx="272.7" cy="130.4" r="11.37"/>
  <path class="cls-6" d="M111.44,159.8,18.64,111S15.79,134.3,36.29,147.4L13.52,144S9,169.6,34,170.17L15.79,176S84.47,255.46,111.44,159.8Z"/>
  <path class="cls-1" d="M462.9,59.54c-35.45,0-66.41,18.62-83,46.3h0s-25.63,42.35-36-3.61c0,0-19,148,119,143.18,53,0,96-41.61,96-92.94S515.9,59.54,462.9,59.54Z"/>
  <circle class="cls-2" cx="470.89" cy="130.4" r="42.51"/>
  <circle class="cls-2" cx="553.31" cy="126.08" r="35.46"/>
  <path class="cls-3" d="M572.7,181.15S557.87,196,544,191s-14.83-15.82-14.83-15.82Z"/>
  <path class="cls-4" d="M528.21,172.52s-8.9-20.76,17.8-22.74,39.55,32.63,39.55,32.63S528.21,186.4,528.21,172.52Z"/>
  <circle class="cls-5" cx="493.63" cy="130.4" r="11.37"/>
  <circle class="cls-5" cx="572.7" cy="130.4" r="11.37"/>
  <path class="cls-6" d="M413.1,139.81l-104.75,4.87s9.36,21.57,33.67,22.49l-21.37,8.58s9,24.4,30.93,12.21l-12.77,14.23S438.28,236,413.1,139.81Z"/>
  <path class="cls-1" d="M762.9,59.54c-35.45,0-66.41,18.62-83,46.3h0s-25.63,42.35-36-3.61c0,0-19,148,119,143.18,53,0,96-41.61,96-92.94S815.9,59.54,762.9,59.54Z"/>
  <circle class="cls-2" cx="770.89" cy="130.4" r="42.51"/>
  <circle class="cls-2" cx="853.31" cy="126.08" r="35.46"/>
  <path class="cls-3" d="M872.7,181.15S857.87,196,844,191s-14.83-15.82-14.83-15.82Z"/>
  <path class="cls-4" d="M828.21,172.52s-8.9-20.76,17.8-22.74,39.55,32.63,39.55,32.63S828.21,186.4,828.21,172.52Z"/>
  <circle class="cls-5" cx="793.63" cy="130.4" r="11.37"/>
  <circle class="cls-5" cx="872.7" cy="130.4" r="11.37"/>
  <path class="cls-6" d="M681.84,140.26l-59.26,86.52s22.86,5.53,38.24-13.31l-6,22.22s24.92,7.49,28.39-17.32l3.66,18.77S773.73,178.13,681.84,140.26Z"/>
</svg>
