<svg id="Layer_1" data-name="Layer 1" xmlns="http://www.w3.org/2000/svg" viewBox="0 0 1100.04 1100.77">
  <defs>
    <style>
      .cls-1, .cls-13 {
        fill: #b7a895;
      }

      .cls-1 {
        stroke: #a1e5a1;
        stroke-width: 38px;
      }

      .cls-1, .cls-2, .cls-3 {
        stroke-miterlimit: 10;
      }

      .cls-2, .cls-3 {
        fill: none;
      }

      .cls-2 {
        stroke: #998b7c;
        stroke-linecap: round;
        stroke-width: 20px;
      }

      .cls-3 {
        stroke: #8e8070;
        stroke-width: 6px;
      }

      .cls-4 {
        fill: #6a9e6a;
      }

      .cls-5 {
        fill: #d18de2;
      }

      .cls-6 {
        fill: #b29b90;
      }

      .cls-7 {
        fill: #af58c4;
      }

      .cls-8 {
        fill: #c575d8;
      }

      .cls-9 {
        fill: #93ce93;
      }

      .cls-10 {
        fill: #7db57d;
      }

      .cls-11 {
        fill: #dba0ea;
      }

      .cls-12 {
        fill: #a1e5a1;
      }

      .cls-14 {
        fill: #ccc1b0;
      }

      .cls-15 {
        fill: #dbd1c1;
      }

      .cls-16 {
        fill: #998a79;
      }

      .cls-17 {
        fill: #7f6247;
      }

      .cls-18 {
        fill: #fff;
      }

      .cls-19 {
        fill: #a1e5a0;
      }

      .cls-20 {
        fill: #f2f2f2;
      }

      .cls-21 {
        fill: #ccc;
      }

      .cls-22 {
        fill: #7b7c7b;
      }

      .cls-23 {
        fill: #b7ab9a;
      }

      .cls-24 {
        fill: #fee9ff;
      }

      .cls-25 {
        fill: #c6c1bd;
      }
    </style>
  </defs>
  <title>Untitled-2</title>
  <g>
    <circle class="cls-1" cx="552.25" cy="564.73" r="391.01" transform="translate(-101.41 121.3) rotate(-11.49)"/>
    <path class="cls-2" d="M369,307.4a324.81,324.81,0,0,0-43.83,46.67"/>
    <path class="cls-3" d="M555.5,61.22s12.87,19.53,47.64,19.18a178.16,178.16,0,0,0,62.78-12.61s9.2,29.9,43,42.66,63.44-3,63.44-3"/>
    <path class="cls-4" d="M317.14,192.12s-6.62-60.39,38.62-62.39,75.56,43.91,75.56,43.91l-61,39.66Z"/>
    <path class="cls-3" d="M1056.77,666.55S1026.28,686,1013,720.21s5,62,5,62-47.62,13.59-65.61,37.76.84,58.4.84,58.4"/>
    <g>
      <circle class="cls-5" cx="941.78" cy="842.51" r="7.57" transform="translate(-157.08 218.58) rotate(-12.23)"/>
      <rect class="cls-6" x="907.25" y="784.71" width="11" height="121.5" transform="translate(2140.99 647.1) rotate(128.02)"/>
      <circle class="cls-7" cx="955.37" cy="853.82" r="7.57" transform="translate(-159.16 221.72) rotate(-12.23)"/>
      <circle class="cls-8" cx="959.32" cy="833.92" r="7.57" transform="translate(-154.86 222.1) rotate(-12.23)"/>
      <path class="cls-9" d="M957.5,861.1l30.16-14.28S950.49,833.46,957.5,861.1Z"/>
      <path class="cls-10" d="M958.19,861l32.8,6.12S968.72,834.5,958.19,861Z"/>
      <circle class="cls-11" cx="944.98" cy="821.54" r="7.57" transform="translate(-152.56 218.78) rotate(-12.23)"/>
      <circle class="cls-5" cx="884.33" cy="852.04" r="7.57" transform="translate(-25.66 1676.62) rotate(-86.12)"/>
      <circle class="cls-7" cx="897.49" cy="863.85" r="7.57" transform="translate(-25.17 1700.76) rotate(-86.12)"/>
      <circle class="cls-8" cx="878.38" cy="870.64" r="7.57" transform="translate(-49.76 1688.03) rotate(-86.12)"/>
      <path class="cls-9" d="M905,864.9l-9.75,31.91S876.64,862,905,864.9Z"/>
      <path class="cls-10" d="M905,865.6l10.82,31.57S880.32,879.86,905,865.6Z"/>
      <circle class="cls-11" cx="864.05" cy="858.25" r="7.57" transform="translate(-50.76 1662.18) rotate(-86.12)"/>
    </g>
    <g>
      <circle class="cls-5" cx="996.5" cy="747.55" r="7.57" transform="translate(-222.82 492.42) rotate(-25.06)"/>
      <rect class="cls-6" x="963.36" y="696.12" width="11" height="121.5" transform="translate(2066.09 202.24) rotate(115.19)"/>
      <circle class="cls-7" cx="1012.27" cy="755.56" r="7.57" transform="translate(-224.73 499.85) rotate(-25.06)"/>
      <circle class="cls-8" cx="1011.69" cy="735.29" r="7.57" transform="translate(-216.2 497.7) rotate(-25.06)"/>
      <path class="cls-9" d="M1016,762.18l26.24-20.62S1003,736.79,1016,762.18Z"/>
      <path class="cls-10" d="M1016.61,761.94l33.34-1.32S1021,733.76,1016.61,761.94Z"/>
      <circle class="cls-11" cx="994.96" cy="726.4" r="7.57" transform="translate(-214.01 489.78) rotate(-25.06)"/>
      <circle class="cls-5" cx="942.6" cy="769.6" r="7.57" transform="translate(-108.21 155.95) rotate(-8.95)"/>
      <circle class="cls-7" cx="958.06" cy="778.19" r="7.57" transform="translate(-109.36 158.46) rotate(-8.95)"/>
      <circle class="cls-8" cx="940.93" cy="789.06" r="7.57" transform="translate(-111.26 155.92) rotate(-8.95)"/>
      <path class="cls-9" d="M965.62,777.55l-2.42,33.28S937.31,781,965.62,777.55Z"/>
      <path class="cls-10" d="M965.78,778.23l17.56,28.38S944.87,797.62,965.78,778.23Z"/>
      <circle class="cls-11" cx="924.21" cy="780.16" r="7.57" transform="translate(-110.08 153.22) rotate(-8.95)"/>
    </g>
    <g>
      <circle class="cls-5" cx="1026.88" cy="640.42" r="7.57" transform="translate(-168.75 827.75) rotate(-40.85)"/>
      <rect class="cls-6" x="997.32" y="596.17" width="11" height="121.5" transform="translate(1814.56 -225.27) rotate(99.39)"/>
      <circle class="cls-7" cx="1044.23" cy="643.84" r="7.57" transform="translate(-166.76 839.93) rotate(-40.85)"/>
      <circle class="cls-8" cx="1038.16" cy="624.49" r="7.57" transform="translate(-155.58 831.25) rotate(-40.85)"/>
      <path class="cls-9" d="M1049.59,649.21l19.63-27S1030.19,628.31,1049.59,649.21Z"/>
      <path class="cls-10" d="M1050.15,648.79l31.73-10.34S1046.7,620.49,1050.15,648.79Z"/>
      <circle class="cls-11" cx="1019.65" cy="620.49" r="7.57" transform="translate(-157.47 818.16) rotate(-40.85)"/>
      <circle class="cls-5" cx="981.02" cy="676.31" r="7.57" transform="translate(-193.01 472.69) rotate(-24.74)"/>
      <circle class="cls-7" cx="998.23" cy="680.37" r="7.57" transform="translate(-193.13 480.26) rotate(-24.74)"/>
      <circle class="cls-8" cx="984.71" cy="695.49" r="7.57" transform="translate(-200.69 475.99) rotate(-24.74)"/>
      <path class="cls-9" d="M1005.33,677.7l6.73,32.68S979,688.72,1005.33,677.7Z"/>
      <path class="cls-10" d="M1005.67,678.3l24.62,22.53S990.83,702.66,1005.67,678.3Z"/>
      <circle class="cls-11" cx="966.2" cy="691.48" r="7.57" transform="translate(-200.71 467.88) rotate(-24.74)"/>
    </g>
    <line class="cls-9" x1="68.67" y1="851.73" x2="-150" y2="848.07"/>
    <path class="cls-9" d="M599.17,967.92s76.42,106.57,153.26,76.63,62.68-168.28,62.68-168.28Z"/>
    <line class="cls-9" x1="661.62" y1="1054.12" x2="880.01" y2="1065.77"/>
    <path class="cls-12" d="M736.21,1031.54c-.71,8.9,2,13.89,7,16.09a78.33,78.33,0,0,0,8.44-2.75c76.84-29.94,62.68-168.28,62.68-168.28L687.62,930.38c12.85,4.51,31.73,9.54,58.82,13.65C812.47,954,740.14,982.35,736.21,1031.54Z"/>
    <path class="cls-9" d="M370.32,213.3s-110.23-71-170.7-15,3.54,179.54,3.54,179.54Z"/>
    <line class="cls-9" x1="280.57" y1="156.09" x2="73.18" y2="225.5"/>
    <path class="cls-12" d="M219.49,204.5c-2.61-8.54-7-12.16-12.44-12.38a78.33,78.33,0,0,0-6.84,5.66c-60.47,56.08,3.54,179.54,3.54,179.54l98.1-96.6c-13.61.53-33,2.78-59.72,8.92C177.05,304.61,233.92,251.69,219.49,204.5Z"/>
    <line class="cls-9" x1="1144.04" y1="720.54" x2="1009.09" y2="548.45"/>
    <g>
      <rect class="cls-6" x="137.67" y="636.3" width="18.58" height="51" transform="translate(-472.33 937.62) rotate(-101.49)"/>
      <path class="cls-10" d="M144,709.65,87.72,673.42l37.84-54.54c2.35-3.39,8.37-2.89,9.11.77l17.43,85.75C152.85,709.08,147.46,711.89,144,709.65Z"/>
      <path class="cls-9" d="M112.65,707.92,66,677.9l31.35-45.19c2-2.81,6.94-2.39,7.55.64l14.44,71.05C120,707.44,115.54,709.78,112.65,707.92Z"/>
    </g>
    <g>
      <rect class="cls-6" x="234.1" y="815.26" width="18.58" height="51" transform="translate(-194.72 1598.5) rotate(-133.82)"/>
      <path class="cls-10" d="M266.46,882.78l-66.91-.52,2.81-66.32c.17-4.13,5.53-6.92,8.11-4.22l60.59,63.14C273.65,877.55,270.6,882.81,266.46,882.78Z"/>
      <path class="cls-9" d="M239.07,898.07l-55.44-.43,2.32-55c.14-3.42,4.58-5.73,6.72-3.5l50.2,52.31C245,893.74,242.5,898.1,239.07,898.07Z"/>
    </g>
    <g>
      <rect class="cls-6" x="965.24" y="519.59" width="18.58" height="51" transform="translate(1437.53 -471.02) rotate(85.28)"/>
      <path class="cls-10" d="M983.12,497.93l51.6,42.6-44,49.7c-2.74,3.09-8.65,1.88-9-1.84l-7.21-87.21C974.25,497.45,979.93,495.29,983.12,497.93Z"/>
      <path class="cls-9" d="M1014,503.34l42.76,35.3-36.46,41.18c-2.27,2.56-7.17,1.56-7.42-1.52l-6-72.26C1006.67,502.94,1011.38,501.15,1014,503.34Z"/>
    </g>
    <rect class="cls-6" x="131.43" y="458.39" width="18.58" height="51" transform="translate(-359.48 545.21) rotate(-80.77)"/>
    <path class="cls-4" d="M113.16,548.58l-45-77.09,66.94-57.72a5.89,5.89,0,0,1,9.66,5.41L124.07,546.55A5.89,5.89,0,0,1,113.16,548.58Z"/>
    <path class="cls-10" d="M78.73,532.18l-38-65,56.48-48.7a5,5,0,0,1,8.15,4.56L87.93,530.47A5,5,0,0,1,78.73,532.18Z"/>
    <path class="cls-9" d="M45.42,516.77,13.94,462.87l46.8-40.35a4.12,4.12,0,0,1,6.75,3.78L53,515.35A4.12,4.12,0,0,1,45.42,516.77Z"/>
    <g>
      <rect class="cls-6" x="141.55" y="542.37" width="12.61" height="34.63" transform="translate(-415.06 694.7) rotate(-88.69)"/>
      <path class="cls-10" d="M138.69,590.92l-31.8-32.45L140.15,528c2.07-1.89,6-.65,5.92,1.88l-1.36,59.4C144.65,591.87,140.66,592.93,138.69,590.92Z"/>
      <path class="cls-9" d="M118.21,585.06,91.86,558.17,119.42,533c1.71-1.57,5-.54,4.9,1.56l-1.13,49.22C123.15,585.85,119.84,586.72,118.21,585.06Z"/>
    </g>
    <g>
      <rect class="cls-6" x="425.02" y="949.71" width="12.61" height="34.63" transform="translate(553.12 2018.85) rotate(-162.57)"/>
      <path class="cls-10" d="M458.78,984.5l-40,21.54-20-40.4c-1.24-2.51,1-5.92,3.45-5.16l56.69,17.8C461.36,979,461.26,983.17,458.78,984.5Z"/>
      <path class="cls-9" d="M447.47,1002.55l-33.15,17.85-16.56-33.47c-1-2.08.86-4.91,2.86-4.28l47,14.75C449.6,998,449.52,1001.44,447.47,1002.55Z"/>
    </g>
    <rect class="cls-6" x="177.65" y="747.62" width="18.58" height="51" transform="translate(-356.54 1353.9) rotate(-123.31)"/>
    <path class="cls-4" d="M210.37,839.41,125.09,813l10.31-87.78a5.89,5.89,0,0,1,10.77-2.55L217,830.55A5.89,5.89,0,0,1,210.37,839.41Z"/>
    <path class="cls-10" d="M173.91,850.61l-72-22.26,8.7-74.07a5,5,0,0,1,9.09-2.15l59.79,91A5,5,0,0,1,173.91,850.61Z"/>
    <path class="cls-9" d="M138.94,861.77,79.32,843.33,86.52,782a4.12,4.12,0,0,1,7.53-1.78l49.54,75.4A4.12,4.12,0,0,1,138.94,861.77Z"/>
    <rect class="cls-6" x="890.59" y="288.42" width="18.58" height="51" transform="translate(638.59 -602.62) rotate(54.86)"/>
    <path class="cls-4" d="M874.34,248.42,960.42,272l-7.49,88.07A5.89,5.89,0,0,1,942.24,363L868,257.49A5.89,5.89,0,0,1,874.34,248.42Z"/>
    <path class="cls-10" d="M910.42,236.06,983.06,256l-6.32,74.31a5,5,0,0,1-9,2.44l-62.68-89A5,5,0,0,1,910.42,236.06Z"/>
    <path class="cls-9" d="M945,223.78l60.18,16.52L1000,301.88a4.12,4.12,0,0,1-7.47,2l-51.93-73.77A4.12,4.12,0,0,1,945,223.78Z"/>
    <ellipse class="cls-9" cx="925.5" cy="437.84" rx="10.6" ry="54.77" transform="matrix(0.96, -0.29, 0.29, 0.96, -86.85, 284.88)"/>
    <g>
      <path class="cls-13" d="M278.56,947.64s43.49-81.52,61.92-36.32c17,41.66-27.22,56.09-27.22,56.09s-10.74,26.65-34.83,2.84S284.26,921,284.26,921s10.14,8.22,3.06,18.57Z"/>
      <rect class="cls-14" x="318.39" y="902.15" width="47.56" height="54.35" rx="15.78" ry="15.78" transform="translate(179.35 1906.15) rotate(-150.32)"/>
      <rect class="cls-15" x="355.85" y="908.81" width="15.68" height="9.51" rx="3.16" ry="3.16" transform="matrix(-0.87, -0.5, 0.5, -0.87, 227.37, 1887.38)"/>
      <rect class="cls-15" x="337.36" y="898.28" width="15.68" height="9.51" rx="3.16" ry="3.16" transform="translate(198.03 1858.53) rotate(-150.32)"/>
      <path class="cls-16" d="M277.52,945.56s-1.37-17.12,6.74-24.57c0,0,6.68,4,5.3,8.6S277.52,945.56,277.52,945.56Z"/>
      <g>
        <path class="cls-17" d="M344.74,939.75s8.14-4.92,6.15-11.27a7.33,7.33,0,0,1,0-4.3l.05-.18-.18,0a7.13,7.13,0,0,1-4-.79c-2.12-1.1-6.49-1.89-12.74,4.31Z"/>
        <path class="cls-16" d="M334.52,929.84h10.34a3,3,0,0,1,3,3v3a3,3,0,0,1-3,3H330.53a1,1,0,0,1-1-1v-3a5,5,0,0,1,5-5Z" transform="translate(-156.55 1795.91) rotate(-130.18)"/>
        <rect class="cls-16" x="332.43" y="933.58" width="2.71" height="9.74" rx="0.9" ry="0.9" transform="translate(-167.79 1798.98) rotate(-130.18)"/>
      </g>
      <path class="cls-15" d="M347.83,956.3s35.55-4.23,10.21-26.38c0,0-4.8-3-7,.78s-3.07-.86-3.07-.86-3.06,3.29-.6,4.7-3.54,3.91-3,1.26c0,0-.2,5.4,3.35,4.37a16.93,16.93,0,0,0,6.43-4s4.24,4.52-1.73,6.67S341.52,957.61,347.83,956.3Z"/>
      <path class="cls-15" d="M318,940.16s-14.48-32.74,17.49-22.23c0,0,5.05,2.58,2.88,6.39s2.3,2.2,2.3,2.2-1.27,4.32-3.74,2.91-1.56,5,.45,3.22c0,0-4.54,2.92-5.47-.66a16.93,16.93,0,0,1,.16-7.56s-6.05-1.34-4.86,4.89S320,946.26,318,940.16Z"/>
      <path class="cls-15" d="M301.41,969.4c1.27,6.16-2.63,10.52,2.13,9.7a20.94,20.94,0,0,0,8.48-3.24,21.13,21.13,0,0,0,10.57,6.1,21.05,21.05,0,0,0,1.54,8.87c1.72,4.51,3.49-1.06,9.43-3.11,4.94-1.7,7.87-9,8.72-11.37a21.08,21.08,0,1,0-35.15-20.71C306.12,956.8,300.24,963.77,301.41,969.4Z"/>
      <path class="cls-14" d="M337.65,979s-8.27,3.84-10,6.87S334.79,984.51,337.65,979Z"/>
      <path class="cls-14" d="M306.88,961.45s.91,9.07-.81,12.1S303.58,966.72,306.88,961.45Z"/>
      <circle class="cls-18" cx="338.44" cy="966.08" r="7.74" transform="translate(-668.48 781.82) rotate(-60.32)"/>
      <circle class="cls-18" cx="317.14" cy="953.94" r="7.74" transform="translate(-668.69 757.19) rotate(-60.32)"/>
      <circle class="cls-14" cx="336.98" cy="970.02" r="2.76" transform="translate(-672.64 782.55) rotate(-60.32)"/>
      <circle class="cls-14" cx="315.69" cy="957.88" r="2.76" transform="translate(-672.85 757.91) rotate(-60.32)"/>
      <path class="cls-13" d="M337.43,952.21s.27-3.08-2.37-4.25a4.1,4.1,0,0,0-4.38.41"/>
    </g>
    <path class="cls-19" d="M636.05,976.75s-13.1,38.38-71.73,44-82.07-68.58-82.07-68.58l161.28-6.73Z"/>
    <rect class="cls-20" x="542.57" y="1007.37" width="36.18" height="21.97" transform="translate(1175.64 2004.85) rotate(176.9)"/>
    <polygon class="cls-6" points="583.94 1024.59 539.51 1027 547.33 1037.59 578.03 1035.93 583.94 1024.59"/>
    <rect class="cls-21" x="558.83" y="1007.31" width="5.64" height="10.98" transform="translate(1177.32 1993.7) rotate(176.9)"/>
    <path class="cls-9" d="M564.18,1007.28s8.08-11.6-5-16.54-42.94-8.57-8.19-18.69,25.15-22.15,25.15-22.15l-16,.87s17,4.35-30.91,24.43c0,0-17.42,8.44,25.62,18.34,0,0,12.72,3.14,3.66,13.94"/>
    <rect class="cls-18" x="546.03" y="1015.75" width="9.04" height="5.77" transform="translate(1155.46 2005.95) rotate(176.9)"/>
    <polygon class="cls-22" points="574.24 1037.14 578.59 1027.89 546.1 1029.65 550.1 1038.44 574.24 1037.14"/>
    <g>
      <ellipse class="cls-23" cx="952.6" cy="427.92" rx="27.3" ry="41.8" transform="matrix(0.96, -0.29, 0.29, 0.96, -82.85, 292.26)"/>
      <rect class="cls-23" x="912.07" y="411.02" width="26.74" height="9.57" rx="2.69" ry="2.69" transform="translate(1057.31 -590.15) rotate(73.27)"/>
      <rect class="cls-23" x="923.37" y="448.62" width="26.74" height="9.57" rx="2.69" ry="2.69" transform="translate(1101.37 -574.19) rotate(73.27)"/>
      <path class="cls-14" d="M992.5,435.6c7.54-5.07,11.67-14.41,9.05-23.13l-.78-2.6c-3.25-10.82-16.26-18-27.67-14.54L962,398.67c-.29.09-.39.82-.67.92l.11.29s0,.19-.1.23a22.56,22.56,0,0,0-4.88,2.5c-9.4,4.74-29.12,15.18-34.44,21.65-7.06,8.59,1.44,14.21,17.13,5.56,0,0,2.5-3,8.29-5.53.11.49.49.91.63,1.4l.78,2.6a19.35,19.35,0,0,0,5.25,8.85,77.65,77.65,0,0,1-12,1.11C932,438.38,910.9,445,934,451.87S992.5,435.6,992.5,435.6Z"/>
      <path class="cls-15" d="M1013.76,429l.45,0a152.46,152.46,0,0,0,43.88-18.77c21.7-13.87,20.15-24.87-4.29-14.29-17.88,7.74-21.95,15.41-31,21.19a22.15,22.15,0,0,0-5.71-23.39c9.49.42,17.35,3.7,35,.57,26.23-4.65,21.45-14.68-4.29-14.29a154.82,154.82,0,0,0-44,7.5,24.68,24.68,0,0,0-10.22.86c-12.65,3.8-20,16.72-16.3,28.85s16.86,18.89,29.51,15.09A24.8,24.8,0,0,0,1013.76,429Z"/>
      <polygon class="cls-24" points="987.4 410.55 989.67 418.1 983.69 415.79 987.4 410.55"/>
      <circle class="cls-18" cx="993.34" cy="399.66" r="7.95" transform="matrix(0.96, -0.29, 0.29, 0.96, -72.99, 302.79)"/>
      <circle class="cls-18" cx="1000.59" cy="423.79" r="7.95" transform="translate(-79.63 305.9) rotate(-16.73)"/>
      <circle class="cls-14" cx="997.22" cy="397.76" r="2.84" transform="translate(-72.28 303.83) rotate(-16.73)"/>
      <circle class="cls-14" cx="1004.47" cy="421.88" r="2.84" transform="translate(-78.92 306.94) rotate(-16.73)"/>
      <path class="cls-24" d="M1014.42,389.63s28.81-11.4,43.82-2.86S1014.42,389.63,1014.42,389.63Z"/>
      <path class="cls-24" d="M1023.8,420.83s30.32-6.37,38.13-21.77S1023.8,420.83,1023.8,420.83Z"/>
    </g>
    <circle class="cls-5" cx="535.3" cy="88.94" r="7.57" transform="translate(124.6 443.6) rotate(-50.25)"/>
    <rect class="cls-6" x="550" y="49.23" width="11" height="121.5"/>
    <circle class="cls-7" cx="535.84" cy="71.26" r="7.57" transform="translate(138.39 437.64) rotate(-50.25)"/>
    <circle class="cls-8" cx="517.74" cy="80.41" r="7.57" transform="translate(124.83 427.02) rotate(-50.25)"/>
    <path class="cls-9" d="M540.26,65.1l-29.83-15S522.81,87.65,540.26,65.1Z"/>
    <path class="cls-10" d="M539.77,64.61,524.38,35S512.4,72.64,539.77,64.61Z"/>
    <circle class="cls-11" cx="516.82" cy="99.33" r="7.57" transform="translate(109.95 433.13) rotate(-50.25)"/>
    <circle class="cls-5" cx="578.2" cy="128.32" r="7.57" transform="translate(27.6 346.55) rotate(-34.13)"/>
    <circle class="cls-7" cx="579.39" cy="110.68" r="7.57" transform="translate(37.71 344.18) rotate(-34.13)"/>
    <circle class="cls-8" cx="596.51" cy="121.55" r="7.57" transform="translate(34.55 355.66) rotate(-34.13)"/>
    <path class="cls-9" d="M575.59,104.11l31.15-12S590.76,128.27,575.59,104.11Z"/>
    <path class="cls-10" d="M576.14,103.68l18.21-28S602.58,114.35,576.14,103.68Z"/>
    <circle class="cls-11" cx="595.58" cy="140.48" r="7.57" transform="translate(23.78 358.39) rotate(-34.13)"/>
    <circle class="cls-5" cx="639.68" cy="92.55" r="7.57" transform="translate(80.37 416.47) rotate(-38.31)"/>
    <rect class="cls-6" x="649.58" y="56.56" width="11" height="121.5" transform="translate(38.43 -132.95) rotate(11.94)"/>
    <circle class="cls-7" cx="643.86" cy="75.36" r="7.57" transform="translate(91.92 415.36) rotate(-38.31)"/>
    <circle class="cls-8" cx="624.25" cy="80.56" r="7.57" transform="translate(84.47 404.33) rotate(-38.31)"/>
    <path class="cls-9" d="M649.46,70.25,623.37,49.44S627.72,88.7,649.46,70.25Z"/>
    <path class="cls-10" d="M649.07,69.67l-8.93-32.15S620.64,71.86,649.07,69.67Z"/>
    <circle class="cls-11" cx="619.44" cy="98.89" r="7.57" transform="translate(72.08 405.29) rotate(-38.31)"/>
    <circle class="cls-5" cx="673.49" cy="139.95" r="7.57" transform="translate(-2.96 264.82) rotate(-22.2)"/>
    <circle class="cls-7" cx="678.32" cy="122.94" r="7.57" transform="translate(3.83 265.38) rotate(-22.2)"/>
    <circle class="cls-8" cx="692.81" cy="137.12" r="7.57" transform="translate(-0.46 271.91) rotate(-22.2)"/>
    <path class="cls-9" d="M676,115.73l33-5.27S685.8,142.49,676,115.73Z"/>
    <path class="cls-10" d="M676.58,115.41l23.6-23.59S700.25,131.32,676.58,115.41Z"/>
    <circle class="cls-11" cx="687.99" cy="155.43" r="7.57" transform="translate(-7.73 271.44) rotate(-22.2)"/>
    <circle class="cls-5" cx="742.69" cy="123.22" r="7.57" transform="translate(17.89 326.76) rotate(-25.11)"/>
    <rect class="cls-6" x="746.53" y="90.1" width="11" height="121.5" transform="translate(135.32 -305.19) rotate(25.14)"/>
    <circle class="cls-7" cx="750.68" cy="107.44" r="7.57" transform="translate(25.33 328.66) rotate(-25.11)"/>
    <circle class="cls-8" cx="730.41" cy="108.03" r="7.57" transform="translate(23.17 320.11) rotate(-25.11)"/>
    <path class="cls-9" d="M757.3,103.74,736.66,77.52S731.92,116.74,757.3,103.74Z"/>
    <path class="cls-10" d="M757.06,103.09l-1.35-33.34S728.88,98.73,757.06,103.09Z"/>
    <circle class="cls-11" cx="721.54" cy="124.77" r="7.57" transform="translate(15.23 317.93) rotate(-25.11)"/>
    <circle class="cls-5" cx="764.78" cy="177.09" r="7.57" transform="translate(-18.28 121.74) rotate(-8.99)"/>
    <circle class="cls-7" cx="773.36" cy="161.63" r="7.57" transform="translate(-15.76 122.89) rotate(-8.99)"/>
    <circle class="cls-8" cx="784.24" cy="178.74" r="7.57" transform="translate(-18.3 124.8) rotate(-8.99)"/>
    <path class="cls-9" d="M772.71,154.07,806,156.46S776.18,182.38,772.71,154.07Z"/>
    <path class="cls-10" d="M773.39,153.91l28.36-17.58S792.8,174.8,773.39,153.91Z"/>
    <circle class="cls-11" cx="775.35" cy="195.48" r="7.57" transform="translate(-21.03 123.62) rotate(-8.99)"/>
    <g>
      <rect class="cls-6" x="452.46" y="137.59" width="16.73" height="45.93" transform="translate(-24.8 112.5) rotate(-13.56)"/>
      <path class="cls-10" d="M417.67,159.44l30.77-51.81,50.31,32.28c3.13,2,2.87,7.44-.4,8.23l-76.61,18.47C418.47,167.4,415.77,162.64,417.67,159.44Z"/>
      <path class="cls-9" d="M418.21,131.19l25.5-42.93L485.4,115c2.59,1.66,2.38,6.16-.33,6.82l-63.47,15.31C418.88,137.79,416.63,133.85,418.21,131.19Z"/>
    </g>
    <ellipse class="cls-25" cx="510.44" cy="223.63" rx="16.22" ry="10.93"/>
    <ellipse class="cls-25" cx="730.41" cy="845.46" rx="16.22" ry="10.93" transform="translate(-324.87 478.47) rotate(-30)"/>
    <ellipse class="cls-25" cx="782.92" cy="330.73" rx="10.93" ry="16.22" transform="translate(-4.55 650.48) rotate(-45)"/>
    <ellipse class="cls-25" cx="866.86" cy="534.65" rx="10.93" ry="16.22" transform="translate(-41.08 73.19) rotate(-4.72)"/>
    <ellipse class="cls-25" cx="848.54" cy="496.71" rx="6.88" ry="10.21" transform="translate(-38.02 71.55) rotate(-4.72)"/>
    <ellipse class="cls-25" cx="228.26" cy="440.88" rx="16.22" ry="10.93" transform="translate(-260.79 526.33) rotate(-72.54)"/>
    <ellipse class="cls-25" cx="355.76" cy="826.35" rx="10.93" ry="16.22" transform="translate(-501.71 554.02) rotate(-49.09)"/>
    <ellipse class="cls-25" cx="423.26" cy="838.3" rx="10.93" ry="16.22" transform="matrix(0.5, -0.87, 0.87, 0.5, -514.36, 785.71)"/>
    <ellipse class="cls-25" cx="467.11" cy="235.87" rx="8.11" ry="5.47"/>
    <ellipse class="cls-25" cx="530.77" cy="268.47" rx="8.11" ry="5.47"/>
    <ellipse class="cls-25" cx="306.71" cy="400.6" rx="8.11" ry="5.47" transform="translate(-193.57 465.91) rotate(-60)"/>
    <ellipse class="cls-25" cx="848.54" cy="570.2" rx="8.11" ry="5.47" transform="translate(217.63 1374.62) rotate(-85.79)"/>
    <ellipse class="cls-25" cx="351.21" cy="772.45" rx="5.47" ry="8.11" transform="translate(-486.6 637.89) rotate(-56.43)"/>
    <ellipse class="cls-25" cx="751.5" cy="800.37" rx="8.11" ry="5.47" transform="translate(-316.06 544.14) rotate(-33.31)"/>
    <ellipse class="cls-25" cx="487.22" cy="882.78" rx="8.11" ry="5.47"/>
    <path class="cls-2" d="M713.05,302.44A324.73,324.73,0,0,0,661,276.38"/>
    <path class="cls-2" d="M560.56,887.8a324.73,324.73,0,0,0,56.77-13.06"/>
    <path class="cls-2" d="M871.92,460.28a325.92,325.92,0,0,0-61-99.46"/>
    <path class="cls-2" d="M839.71,712.37a324.11,324.11,0,0,0,20.17-45.82"/>
    <path class="cls-2" d="M233.64,615.7q1.47,9.56,3.48,18.93a323.46,323.46,0,0,0,10.08,36.44q2.77,8.12,5.94,16"/>
    <path class="cls-2" d="M226.32,558.63q0,11.46.78,22.73"/>
  </g>
</svg>
