<svg id="Layer_1" data-name="Layer 1" xmlns="http://www.w3.org/2000/svg" viewBox="0 0 100 100">
  <defs>
    <style>
      .cls-1 {
        fill: #ffb655;
      }
    </style>
  </defs>
  <title>Untitled-2</title>
  <path class="cls-1" d="M100,50c0,3.88-13.66,5.91-14.61,9.49S95.18,71.77,93.3,75s-14.74-1.78-17.41.89S78.29,91.4,75,93.3,63.19,84.4,59.49,85.39,53.88,100,50,100s-5.91-13.66-9.49-14.61S28.23,95.18,25,93.3s1.78-14.74-.89-17.41S8.6,78.29,6.7,75s8.91-11.82,7.92-15.52S0,53.88,0,50s13.66-5.91,14.61-9.49S4.82,28.23,6.7,25s14.74,1.78,17.41-.89S21.71,8.6,25,6.7s11.82,8.91,15.52,7.92S46.12,0,50,0s5.91,13.66,9.49,14.61S71.77,4.82,75,6.7s-1.78,14.74.89,17.41,15.5-2.4,17.41.89S84.4,36.81,85.39,40.51,100,46.12,100,50Z"/>
</svg>
