<svg id="Layer_1" data-name="Layer 1" xmlns="http://www.w3.org/2000/svg" viewBox="0 0 100 100">
  <defs>
    <style>
      .cls-1 {
        fill: #f7a731;
      }
    </style>
  </defs>
  <title>Untitled-2</title>
  <path class="cls-1" d="M50,100H49l.28-13.69h1.27l.2,13.69Zm7.7-.59L55.61,85.88c.83-.13,1.67-.29,2.5-.48l3,13.35C60,99,58.85,99.23,57.7,99.41Zm-18.79-.64c-1.14-.26-2.28-.56-3.39-.9l4-13.11c.81.24,1.63.46,2.46.65Zm31.86-3.27L65.08,83l1.14-.55,6.13,12.25C71.83,95,71.3,95.25,70.77,95.49ZM29,95.37c-.53-.24-1.06-.5-1.58-.77l6.2-12.21,1.15.56Zm49.41-4.2L70.6,79.9c.69-.48,1.38-1,2-1.52l8.55,10.7C80.28,89.81,79.33,90.51,78.38,91.17ZM18.85,89.11c-.91-.72-1.8-1.49-2.66-2.28l9.26-10.09c.62.57,1.27,1.13,1.94,1.66ZM88.43,82,77.91,73.22c.27-.32.54-.66.8-1l10.82,8.39C89.17,81.08,88.8,81.54,88.43,82Zm-77.05-.24c-.37-.45-.74-.91-1.09-1.37l10.87-8.33c.26.33.52.67.79,1Zm82-7L81.54,68c.42-.73.82-1.49,1.19-2.25l12.33,5.95C94.55,72.74,94,73.79,93.42,74.8ZM5,71.74c-.51-1-1-2.13-1.41-3.21l12.72-5.08c.31.78.66,1.56,1,2.32Zm93.55-9.6L85.23,58.83c.1-.41.2-.83.29-1.24l13.39,2.85C98.79,61,98.65,61.58,98.51,62.14Zm-97.1-.28c-.14-.56-.27-1.14-.38-1.71l13.41-2.77c.09.41.18.83.28,1.24Zm98.46-8.36-13.66-.94c.06-.84.09-1.7.09-2.55v-.07L100,49.87V50C100,51.16,100,52.34,99.88,53.49ZM13.69,50.05H0v0H0c0-1.14,0-2.3.12-3.44l13.66.93c-.06.83-.08,1.67-.08,2.51Zm71.86-7.47c-.09-.41-.18-.83-.28-1.24l13.3-3.25c.14.56.27,1.14.39,1.71Zm-71.07-.12L1.08,39.63c.12-.57.25-1.14.39-1.71l13.29,3.3C14.66,41.63,14.56,42,14.48,42.45Zm69.24-6c-.31-.78-.66-1.56-1-2.32L95,28.2c.51,1,1,2.12,1.42,3.2ZM17.26,34.29,4.91,28.36c.5-1,1.05-2.09,1.63-3.11L18.44,32C18,32.77,17.62,33.53,17.26,34.29Zm61.56-6.38c-.26-.34-.53-.67-.79-1L88.59,18.2c.37.45.73.91,1.09,1.37Zm-57.55-.11L10.44,19.43c.36-.46.72-.92,1.1-1.37l10.53,8.75C21.79,27.14,21.52,27.47,21.26,27.81Zm53.25-4.58c-.62-.57-1.27-1.13-1.94-1.65L81.1,10.85c.91.72,1.81,1.49,2.66,2.28ZM27.33,21.64,18.77,11c.91-.73,1.85-1.43,2.81-2.09l7.79,11.26C28.67,20.6,28,21.11,27.33,21.64Zm39-4.06L65.23,17,71,4.6c.53.25,1.06.5,1.58.77Zm-32.63-.06L27.6,5.29c.52-.26,1-.51,1.58-.76L34.88,17Zm26.74-2.3c-.81-.24-1.63-.46-2.46-.65L61,1.22c1.14.26,2.28.56,3.39.89Zm-18.63-.62L38.79,1.26C39.93,1,41.09.78,42.24.6l2.11,13.53C43.51,14.26,42.67,14.42,41.85,14.61Zm8.85-.91H49.42L49.21,0c.58,0,1.17,0,1.75,0Z"/>
</svg>
