<svg id="Layer_1" data-name="Layer 1" xmlns="http://www.w3.org/2000/svg" viewBox="0 0 400 100">
  <defs>
    <style>
      .cls-1 {
        fill: #ffe655;
      }

      .cls-2 {
        fill: #fff;
      }

      .cls-3 {
        fill: #e29437;
      }

      .cls-4 {
        fill: none;
        stroke: #e29437;
        stroke-linecap: round;
        stroke-miterlimit: 10;
      }
    </style>
  </defs>
  <title>Untitled-2</title>
  <ellipse class="cls-1" cx="149.51" cy="49.8" rx="33.93" ry="25.24"/>
  <g>
    <path class="cls-2" d="M142.59,46.19a8.41,8.41,0,0,0-15.84,2A105.94,105.94,0,0,1,142.59,46.19Z"/>
    <path class="cls-2" d="M126.75,48.67a.45.45,0,0,1-.44-.53A8.86,8.86,0,0,1,143,46a.45.45,0,0,1-.38.64,105.65,105.65,0,0,0-15.78,2ZM135,41.85a8,8,0,0,0-7.66,5.79,106.66,106.66,0,0,1,14.52-1.86A8,8,0,0,0,135,41.85Z"/>
  </g>
  <g>
    <path class="cls-2" d="M172.51,48.43a8.41,8.41,0,0,0-16-2.41A104.16,104.16,0,0,1,172.51,48.43Z"/>
    <path class="cls-2" d="M172.51,48.88h-.1a103.88,103.88,0,0,0-15.92-2.4.45.45,0,0,1-.37-.63A8.85,8.85,0,0,1,173,48.37a.45.45,0,0,1-.44.5Zm-15.28-3.25A104.84,104.84,0,0,1,172,47.85a8,8,0,0,0-14.73-2.22Z"/>
  </g>
  <path class="cls-3 fade-in" d="M149.51,59.27a66.08,66.08,0,0,1-24.6-5.1.45.45,0,0,1,.37-.81,65.12,65.12,0,0,0,24.22,5,67.68,67.68,0,0,0,24.52-5,.45.45,0,0,1,.36.82A68.64,68.64,0,0,1,149.51,59.27Z"/>
  <path class="cls-3 fade-in" d="M121.68,55.84a.45.45,0,0,1,0-.89,3.88,3.88,0,0,0,2.55-1.33,4,4,0,0,0,.46-3.34.45.45,0,1,1,.87-.19,4.84,4.84,0,0,1-.63,4.07,4.73,4.73,0,0,1-3.2,1.68Z"/>
  <path class="cls-3 fade-in" d="M177.65,55.84h0a4.73,4.73,0,0,1-3.2-1.68,4.84,4.84,0,0,1-.63-4.07.45.45,0,1,1,.87.19,4,4,0,0,0,.47,3.35A3.84,3.84,0,0,0,177.68,55a.45.45,0,0,1,0,.89Z"/>
  <circle class="cls-3 fade-in" cx="131" cy="45.63" r="1.72"/>
  <circle class="cls-3 fade-in" cx="161.77" cy="44.96" r="1.72"/>
  <ellipse class="cls-1" cx="249.51" cy="49.8" rx="33.93" ry="25.24"/>
  <path class="cls-3 fade-in" d="M249.51,59.27a66.08,66.08,0,0,1-24.6-5.1.45.45,0,0,1,.37-.81,65.12,65.12,0,0,0,24.22,5,67.68,67.68,0,0,0,24.52-5,.45.45,0,0,1,.36.82A68.64,68.64,0,0,1,249.51,59.27Z"/>
  <path class="cls-3 fade-in" d="M221.68,55.84a.45.45,0,0,1,0-.89,3.88,3.88,0,0,0,2.55-1.33,4,4,0,0,0,.46-3.34.45.45,0,1,1,.87-.19,4.84,4.84,0,0,1-.63,4.07,4.73,4.73,0,0,1-3.2,1.68Z"/>
  <path class="cls-3 fade-in" d="M277.65,55.84h0a4.73,4.73,0,0,1-3.2-1.68,4.84,4.84,0,0,1-.63-4.07.45.45,0,1,1,.87.19,4,4,0,0,0,.47,3.35A3.84,3.84,0,0,0,277.68,55a.45.45,0,0,1,0,.89Z"/>
  <ellipse class="cls-1" cx="349.51" cy="49.8" rx="33.93" ry="25.24"/>
  <g>
    <path class="cls-2" d="M342.59,44.19a8.41,8.41,0,0,0-15.84,2A105.94,105.94,0,0,1,342.59,44.19Z"/>
    <path class="cls-2" d="M326.75,46.67a.45.45,0,0,1-.44-.53A8.86,8.86,0,0,1,343,44a.45.45,0,0,1-.38.64,105.65,105.65,0,0,0-15.78,2ZM335,39.85a8,8,0,0,0-7.66,5.79,106.66,106.66,0,0,1,14.52-1.86A8,8,0,0,0,335,39.85Z"/>
  </g>
  <g>
    <path class="cls-2" d="M372.51,46.43a8.41,8.41,0,0,0-16-2.41A104.16,104.16,0,0,1,372.51,46.43Z"/>
    <path class="cls-2" d="M372.51,46.88h-.1a103.88,103.88,0,0,0-15.92-2.4.45.45,0,0,1-.37-.63A8.85,8.85,0,0,1,373,46.37a.45.45,0,0,1-.44.5Zm-15.28-3.25A104.84,104.84,0,0,1,372,45.85a8,8,0,0,0-14.73-2.22Z"/>
  </g>
  <path class="cls-3 fade-in" d="M349.51,57.27a66.08,66.08,0,0,1-24.6-5.1.45.45,0,0,1,.37-.81,65.12,65.12,0,0,0,24.22,5,67.68,67.68,0,0,0,24.52-5,.45.45,0,0,1,.36.82A68.64,68.64,0,0,1,349.51,57.27Z"/>
  <path class="cls-3 fade-in" d="M321.68,53.84a.45.45,0,0,1,0-.89,3.88,3.88,0,0,0,2.55-1.33,4,4,0,0,0,.46-3.34.45.45,0,1,1,.87-.19,4.84,4.84,0,0,1-.63,4.07,4.73,4.73,0,0,1-3.2,1.68Z"/>
  <path class="cls-3 fade-in" d="M377.65,53.84h0a4.73,4.73,0,0,1-3.2-1.68,4.84,4.84,0,0,1-.63-4.07.45.45,0,1,1,.87.19,4,4,0,0,0,.47,3.35A3.84,3.84,0,0,0,377.68,53a.45.45,0,0,1,0,.89Z"/>
  <circle class="cls-3 fade-in" cx="334.44" cy="43.46" r="1.72"/>
  <circle class="cls-3 fade-in" cx="364.52" cy="43.46" r="1.72"/>
  <path class="cls-4" d="M228.16,42.61a8.58,8.58,0,0,0,7.63,4.11,6,6,0,0,0,5.81-5.17"/>
  <path class="cls-4" d="M255.16,42.61a8.58,8.58,0,0,0,7.63,4.11,6,6,0,0,0,5.81-5.17"/>
  <ellipse class="cls-1" cx="49.51" cy="49.8" rx="33.93" ry="25.24"/>
  <g>
    <path class="cls-2" d="M42.59,46.19a8.41,8.41,0,0,0-15.84,2A105.94,105.94,0,0,1,42.59,46.19Z"/>
    <path class="cls-2" d="M26.75,48.67a.45.45,0,0,1-.44-.53A8.86,8.86,0,0,1,43,46a.45.45,0,0,1-.38.64,105.65,105.65,0,0,0-15.78,2ZM35,41.85a8,8,0,0,0-7.66,5.79,106.66,106.66,0,0,1,14.52-1.86A8,8,0,0,0,35,41.85Z"/>
  </g>
  <g>
    <path class="cls-2" d="M72.51,48.43a8.41,8.41,0,0,0-16-2.41A104.16,104.16,0,0,1,72.51,48.43Z"/>
    <path class="cls-2" d="M72.51,48.88h-.1a103.88,103.88,0,0,0-15.92-2.4.45.45,0,0,1-.37-.63A8.85,8.85,0,0,1,73,48.37a.45.45,0,0,1-.44.5ZM57.23,45.63A104.84,104.84,0,0,1,72,47.85a8,8,0,0,0-14.73-2.22Z"/>
  </g>
  <path class="cls-3 fade-in" d="M49.51,59.27a66.08,66.08,0,0,1-24.6-5.1.45.45,0,0,1,.37-.81,65.12,65.12,0,0,0,24.22,5,67.68,67.68,0,0,0,24.52-5,.45.45,0,1,1,.36.82A68.64,68.64,0,0,1,49.51,59.27Z"/>
  <path class="cls-3 fade-in" d="M21.68,55.84a.45.45,0,0,1,0-.89,3.88,3.88,0,0,0,2.55-1.33,4,4,0,0,0,.46-3.34.45.45,0,1,1,.87-.19,4.84,4.84,0,0,1-.63,4.07,4.73,4.73,0,0,1-3.2,1.68Z"/>
  <path class="cls-3 fade-in" d="M77.65,55.84h0a4.73,4.73,0,0,1-3.2-1.68,4.84,4.84,0,0,1-.63-4.07.45.45,0,1,1,.87.19,4,4,0,0,0,.47,3.35A3.84,3.84,0,0,0,77.68,55a.45.45,0,0,1,0,.89Z"/>
  <circle class="cls-3 fade-in" cx="34.44" cy="45.46" r="1.72"/>
  <circle class="cls-3 fade-in" cx="64.52" cy="45.46" r="1.72"/>
</svg>
